<svg xmlns="http://www.w3.org/2000/svg" viewBox="0 0 180 180">
  <defs>
    <radialGradient id="sunBase" cx="42%" cy="36%" r="66%">
      <stop offset="0" stop-color="#fff6a8"/>
      <stop offset=".2" stop-color="#ffb92d"/>
      <stop offset=".55" stop-color="#ff6f00"/>
      <stop offset=".84" stop-color="#d63200"/>
      <stop offset="1" stop-color="#8b1200"/>
    </radialGradient>
    <radialGradient id="corona" cx="50%" cy="50%" r="58%">
      <stop offset=".58" stop-color="#ff6b00" stop-opacity=".18"/>
      <stop offset=".82" stop-color="#ff2b00" stop-opacity=".54"/>
      <stop offset="1" stop-color="#ff1900" stop-opacity="0"/>
    </radialGradient>
    <filter id="sunGlow" x="-70%" y="-70%" width="240%" height="240%">
      <feGaussianBlur stdDeviation="6" result="b"/>
      <feMerge><feMergeNode in="b"/><feMergeNode in="SourceGraphic"/></feMerge>
    </filter>
    <filter id="solarTexture" x="-20%" y="-20%" width="140%" height="140%">
      <feTurbulence type="fractalNoise" baseFrequency=".055" numOctaves="5" seed="41"/>
      <feColorMatrix type="matrix" values="1.2 0 0 0 0.2  0 .55 0 0 .04  0 0 .08 0 0  0 0 0 .42 0"/>
      <feBlend mode="screen" in2="SourceGraphic"/>
    </filter>
  </defs>
  <circle cx="90" cy="90" r="80" fill="url(#corona)" filter="url(#sunGlow)"/>
  <circle cx="90" cy="90" r="62" fill="url(#sunBase)" filter="url(#sunGlow)"/>
  <circle cx="90" cy="90" r="61" fill="#ff7a00" filter="url(#solarTexture)" opacity=".92"/>
  <g fill="none" stroke-linecap="round" opacity=".78">
    <path d="M31 112 C18 108 10 96 6 84" stroke="#ff4a00" stroke-width="4" filter="url(#sunGlow)"/>
    <path d="M145 52 C160 48 169 57 174 66" stroke="#ff9a1f" stroke-width="3.2" filter="url(#sunGlow)"/>
    <path d="M132 38 C145 30 156 32 164 40" stroke="#ff2f00" stroke-width="2.4" filter="url(#sunGlow)"/>
  </g>
  <g fill="#fff5b8" opacity=".75" filter="url(#sunGlow)">
    <ellipse cx="54" cy="122" rx="18" ry="8" transform="rotate(-22 54 122)"/>
    <ellipse cx="128" cy="54" rx="13" ry="5" transform="rotate(30 128 54)"/>
  </g>
</svg>