<svg xmlns="http://www.w3.org/2000/svg" viewBox="0 0 520 180">
  <defs>
    <radialGradient id="core" cx="50%" cy="50%" r="58%">
      <stop offset="0" stop-color="#fff3cc"/>
      <stop offset=".16" stop-color="#d4bd8b" stop-opacity=".92"/>
      <stop offset=".44" stop-color="#8c78a7" stop-opacity=".42"/>
      <stop offset="1" stop-color="#171a52" stop-opacity="0"/>
    </radialGradient>
    <radialGradient id="haze" cx="50%" cy="52%" r="58%">
      <stop offset="0" stop-color="#b99684" stop-opacity=".52"/>
      <stop offset=".34" stop-color="#755b9f" stop-opacity=".28"/>
      <stop offset="1" stop-color="#171a52" stop-opacity="0"/>
    </radialGradient>
    <filter id="mist" x="-25%" y="-70%" width="150%" height="240%">
      <feGaussianBlur stdDeviation="9" result="b"/>
      <feMerge><feMergeNode in="b"/><feMergeNode in="SourceGraphic"/></feMerge>
    </filter>
    <filter id="softline" x="-25%" y="-70%" width="150%" height="240%">
      <feGaussianBlur stdDeviation="1.2" result="b"/>
      <feMerge><feMergeNode in="b"/><feMergeNode in="SourceGraphic"/></feMerge>
    </filter>
  </defs>
  <ellipse cx="260" cy="92" rx="150" ry="50" fill="url(#haze)" filter="url(#mist)" opacity=".9"/>
  <g fill="none" stroke-linecap="round" stroke-linejoin="round" filter="url(#softline)">
    <path d="M18 78 C92 18 183 34 260 90 C337 146 428 162 502 102"
      stroke="#8176a8" stroke-width="7" opacity=".34"/>
    <path d="M18 78 C92 138 183 122 260 90 C337 58 428 42 502 102"
      stroke="#5f6aa6" stroke-width="7" opacity=".28"/>
    <path d="M26 78 C100 30 183 42 260 90 C337 138 420 150 494 102"
      stroke="#d3c2ac" stroke-width="3.4" opacity=".46"/>
    <path d="M26 78 C100 126 183 114 260 90 C337 66 420 54 494 102"
      stroke="#8e83b8" stroke-width="3.2" opacity=".34"/>
    <path d="M58 82 C132 58 202 66 260 90 C318 114 388 122 462 98"
      stroke="#f1dac0" stroke-width="1.4" opacity=".38"/>
  </g>
  <ellipse cx="260" cy="90" rx="56" ry="33" fill="url(#core)" filter="url(#mist)"/>
  <g fill="#fff" opacity=".74">
    <circle cx="64" cy="72" r="2"/><circle cx="132" cy="92" r="1.2"/>
    <circle cx="195" cy="70" r="1.1"/><circle cx="335" cy="112" r="1.3"/>
    <circle cx="400" cy="92" r="1.6"/><circle cx="466" cy="107" r="1.1"/>
  </g>
</svg>