<svg xmlns="http://www.w3.org/2000/svg" viewBox="0 0 240 180">
  <defs>
    <radialGradient id="bulge" cx="50%" cy="50%" r="38%">
      <stop offset="0" stop-color="#ffffff"/>
      <stop offset=".22" stop-color="#ffe8a6"/>
      <stop offset=".55" stop-color="#8fb5ee" stop-opacity=".58"/>
      <stop offset="1" stop-color="#15203d" stop-opacity="0"/>
    </radialGradient>
    <radialGradient id="halo" cx="50%" cy="50%" r="65%">
      <stop offset="0" stop-color="#c6dcff" stop-opacity=".42"/>
      <stop offset=".62" stop-color="#4f6798" stop-opacity=".26"/>
      <stop offset="1" stop-color="#000" stop-opacity="0"/>
    </radialGradient>
    <filter id="soft" x="-40%" y="-50%" width="180%" height="200%">
      <feGaussianBlur stdDeviation="3" result="b"/>
      <feMerge><feMergeNode in="b"/><feMergeNode in="SourceGraphic"/></feMerge>
    </filter>
    <filter id="grain" x="-30%" y="-30%" width="160%" height="160%">
      <feTurbulence type="fractalNoise" baseFrequency=".9" numOctaves="2" seed="23"/>
      <feColorMatrix type="saturate" values="0"/>
      <feComponentTransfer><feFuncA type="table" tableValues="0 .16"/></feComponentTransfer>
    </filter>
  </defs>
  <ellipse cx="120" cy="90" rx="100" ry="72" fill="url(#halo)" filter="url(#soft)" opacity=".95"/>
  <g fill="none" stroke-linecap="round" filter="url(#soft)" transform="rotate(-22 120 90)">
    <path d="M118 89 C92 74 62 78 40 96 C70 43 138 38 163 70"
      stroke="#d7e7ff" stroke-width="11" opacity=".58"/>
    <path d="M122 92 C150 108 180 102 202 84 C174 137 104 142 78 110"
      stroke="#b7cff7" stroke-width="12" opacity=".52"/>
    <path d="M118 84 C138 62 178 54 207 68 C177 31 102 27 74 68"
      stroke="#6f86b8" stroke-width="10" opacity=".42"/>
    <path d="M122 96 C102 118 62 126 33 112 C63 149 138 153 166 112"
      stroke="#6b82b3" stroke-width="10" opacity=".36"/>
    <path d="M116 89 C96 85 78 91 62 103" stroke="#ffb5a3" stroke-width="2.4" opacity=".55"/>
    <path d="M124 91 C146 94 164 88 181 77" stroke="#ffb5a3" stroke-width="2.2" opacity=".45"/>
  </g>
  <ellipse cx="120" cy="90" rx="38" ry="22" fill="url(#bulge)" filter="url(#soft)" transform="rotate(-22 120 90)"/>
  <ellipse cx="120" cy="90" rx="103" ry="72" fill="#fff" filter="url(#grain)" opacity=".8"/>
  <g fill="#fff" opacity=".72">
    <circle cx="65" cy="62" r="1.4"/><circle cx="86" cy="105" r="1.1"/>
    <circle cx="103" cy="52" r="1.2"/><circle cx="145" cy="126" r="1.3"/>
    <circle cx="166" cy="70" r="1.1"/><circle cx="183" cy="102" r="1.4"/>
    <circle cx="55" cy="112" r="1"/><circle cx="198" cy="80" r=".9"/>
  </g>
</svg>